<svg  viewBox="0 0 24 24" fill="none" xmlns="http://www.w3.org/2000/svg">
<rect x="24" width="24" height="24" rx="4" transform="rotate(90 24 0)" fill="white"/>
<path d="M14.1199 15.3998L18.7099 10.8098C18.8962 10.6224 19.0007 10.369 19.0007 10.1048C19.0007 9.84062 18.8962 9.58716 18.7099 9.3998C18.617 9.30607 18.5064 9.23168 18.3845 9.18091C18.2627 9.13014 18.132 9.104 17.9999 9.104C17.8679 9.104 17.7372 9.13014 17.6154 9.18091C17.4935 9.23168 17.3829 9.30607 17.2899 9.3998L12.7099 13.9998C12.617 14.0935 12.5064 14.1679 12.3845 14.2187C12.2627 14.2695 12.132 14.2956 11.9999 14.2956C11.8679 14.2956 11.7372 14.2695 11.6154 14.2187C11.4935 14.1679 11.3829 14.0935 11.2899 13.9998L6.70994 9.3998C6.52296 9.2115 6.26884 9.10518 6.00347 9.10425C5.73811 9.10331 5.48324 9.20782 5.29494 9.3948C5.10664 9.58178 5.00032 9.8359 4.99938 10.1013C4.99844 10.3666 5.10296 10.6215 5.28994 10.8098L9.87994 15.3998C10.4424 15.9616 11.2049 16.2772 11.9999 16.2772C12.7949 16.2772 13.5574 15.9616 14.1199 15.3998Z" fill="currrent"/>
</svg>
