<svg width="53" height="37" viewBox="0 0 53 37" fill="none" xmlns="http://www.w3.org/2000/svg">
<path d="M52.6504 7.61852L45.0319 0L52.6504 7.61852Z" fill="current"/>
<path d="M35.5826 20.1684H31.4485V16.0343H35.5826V20.1684ZM35.5826 33.6042H31.4485V29.4701H35.5826V33.6042ZM43.585 9.06544V0H25.6313V9.30168H29.7654V13.4358H25.6313V22.7374H29.7654V26.8715H25.6313V29.4405H29.7654V33.5746H25.6313V37H52.6504V9.03592H43.585V9.06544Z" fill="current"/>
<path d="M19.2234 29.4697V33.6038H23.3575V29.4697H19.2234Z" fill="current"/>
<path d="M19.2234 16.0342V20.1683H23.3575V16.0342H19.2234Z" fill="current"/>
<path d="M19.2234 9.30176V13.4358H23.3575V9.30176H19.2234Z" fill="current"/>
<path d="M6.40778 9.30176V13.4358H10.5419V9.30176H6.40778Z" fill="current"/>
<path d="M12.8157 29.4697V33.6038H16.9498V29.4697H12.8157Z" fill="current"/>
<path d="M12.8157 16.0342V20.1683H16.9498V16.0342H12.8157Z" fill="current"/>
<path d="M12.8157 2.59863V6.73271H16.9498V2.59863H12.8157Z" fill="current"/>
<path d="M6.40778 22.7373V26.8714H10.5419V22.7373H6.40778Z" fill="current"/>
<path d="M6.40778 16.0342V20.1683H10.5419V16.0342H6.40778Z" fill="current"/>
<path d="M0 16.0342V20.1683H4.13408V16.0342H0Z" fill="current"/>
<path d="M52.6504 7.61852H45.0319V0L52.6504 7.61852Z" fill="current"/>
</svg>
