<svg viewBox="0 0 24 24" fill="none" xmlns="http://www.w3.org/2000/svg">
<g clip-path="url(#clip0_64_1964)">
<path d="M12.0034 -0.00244141C5.36579 -0.00244141 -0.0151367 5.37848 -0.0151367 12.0161C-0.0151367 18.6538 5.36579 24.0346 12.0034 24.0346C18.6411 24.0346 24.0219 18.6538 24.0219 12.0161C24.0219 5.37848 18.6411 -0.00244141 12.0034 -0.00244141ZM21.8752 10.4998V10.5028C20.968 11.0676 19.976 11.4832 18.9372 11.7337C18.7218 8.53064 17.663 5.44153 15.8682 2.77973C19.0762 4.13404 21.3508 7.05726 21.8752 10.4998ZM12.0001 1.99978C12.2531 1.99978 12.5002 2.01876 12.7492 2.03779C15.244 4.77736 16.7261 8.2882 16.9492 11.9868C15.5826 12.0335 14.2211 11.7987 12.9492 11.2968C12.7501 7.9154 11.1349 4.77459 8.50018 2.64576C9.61833 2.22122 10.8041 2.00236 12.0001 1.99978ZM6.48713 3.66478C7.42655 4.27739 8.25638 5.04337 8.94211 5.93076C5.94464 7.94081 3.61032 10.7944 2.23416 14.1307C1.34396 10.0977 3.03605 5.93371 6.48713 3.66478ZM3.35616 17.0047C4.35441 13.1864 6.70735 9.86137 9.97618 7.64976C10.5681 8.86584 10.9059 10.1898 10.9692 11.5408C8.24011 13.6146 6.52496 16.7539 6.25416 20.1708C5.0716 19.3363 4.08305 18.2564 3.35616 17.0047ZM12.0001 21.9997C10.7064 21.9994 9.42511 21.7467 8.22816 21.2557C8.20613 19.9658 8.43432 18.6839 8.90016 17.4808C12.1871 18.9399 15.8373 19.3751 19.3752 18.7297C17.4878 20.8108 14.8096 21.9983 12.0001 21.9997ZM9.80016 15.6898C10.4341 14.7073 11.2359 13.8442 12.1692 13.1398C13.5827 13.7114 15.0924 14.0077 16.6172 14.0128C18.4722 14.0126 20.3023 13.5848 21.9652 12.7627C21.8715 13.985 21.5518 15.1792 21.0222 16.2847C17.3297 17.4268 13.3511 17.2159 9.80016 15.6898Z" fill="current"/>
</g>
<defs>
<clipPath id="clip0_64_1964">
<rect width="24" height="24" fill="current"/>
</clipPath>
</defs>
</svg>
